<?xml version="1.0" encoding="UTF-8"?>
<svg id="Layer_2" data-name="Layer 2" xmlns="http://www.w3.org/2000/svg" viewBox="0 0 510.65 137.39">
  <defs>
    <style>
      .cls-1 {
        font-family: NewHero-Bold, 'New Hero';
        font-size: 15.31px;
      }

      .cls-1, .cls-2 {
        font-weight: 700;
      }

      .cls-1, .cls-2, .cls-3 {
        fill: #6d6e71;
      }

      .cls-2 {
        font-family: NewHero-ExtraBold, 'New Hero';
        font-size: 36.99px;
      }

      .cls-4 {
        fill: #f26522;
      }
    </style>
  </defs>
  <g id="Layer_1-2" data-name="Layer 1">
    <g>
      <g>
        <polygon class="cls-4" points="175.84 35.61 175.84 0 140.23 0 140.23 11.49 164.35 11.49 164.35 35.61 175.84 35.61"/>
        <path class="cls-4" d="M98.34,23.71h-12.5v42.55h-20.46V23.71h-12.5v41.2c0,6.37,4.49,12.81,14.51,12.81h16.44c10.02,0,14.51-6.43,14.51-12.81V23.71Z"/>
        <polygon class="cls-4" points="152.13 23.71 105.98 23.71 105.98 35.2 122.8 35.2 122.8 77.71 135.3 77.71 135.3 35.2 152.13 35.2 152.13 23.71"/>
        <path class="cls-4" d="M12.51,42.6v-7.49l28.14.08v-11.48H13.41c-8.21,0-13.41,6.97-13.41,14.69s3.73,12.24,9.28,14.03l20.72,6.39v7.49l-28.13-.08v11.48h27.23c8.21,0,13.41-6.97,13.41-14.69s-3.73-12.24-9.28-14.03l-20.72-6.39Z"/>
      </g>
      <g>
        <path class="cls-4" d="M8.06,92.27v2.01c-.66-.47-1.65-.76-2.48-.76-.89,0-1.5.35-1.5.98,0,.59.55.86,1.6,1.29,1.42.56,2.98,1.19,2.98,3.1s-1.46,3.14-3.68,3.14c-1.25,0-2.36-.4-3.03-.9v-2.12c.7.63,1.78,1.1,2.82,1.1s1.65-.46,1.65-1.14-.7-.99-1.78-1.44c-1.23-.51-2.71-1.17-2.71-2.95s1.38-2.99,3.54-2.99c1.02,0,1.93.3,2.6.68Z"/>
        <path class="cls-4" d="M11.22,97.87v-6.06h2.19v6.08c0,1.37.72,2.16,1.93,2.16s2-.79,2-2.17v-6.06h2.2v6.06c0,2.46-1.61,4.17-4.2,4.17s-4.12-1.72-4.12-4.17Z"/>
        <path class="cls-4" d="M22.66,91.8h3.17c2.42,0,3.92,1.17,3.92,3.26,0,1.19-.63,2.55-2.54,3.05l3.02,3.7h-2.63l-2.66-3.52h-.09v3.52h-2.19v-10.01ZM25.73,96.61c1.18,0,1.81-.52,1.81-1.41s-.68-1.4-1.77-1.4h-.93v2.8h.89Z"/>
        <path class="cls-4" d="M39.32,101.81l-.89-2.44h-3.74l-.86,2.44h-2.28l3.74-10.01h2.52l3.8,10.01h-2.29ZM37.82,97.57l-1.26-3.49-1.26,3.49h2.52Z"/>
        <path class="cls-4" d="M52.43,101.81h-2.07l-4.45-6.53h-.01v6.53h-2.09v-10.01h2.12l4.41,6.43h.01v-6.43h2.08v10.01Z"/>
        <path class="cls-4" d="M62.41,101.81l-.89-2.44h-3.74l-.86,2.44h-2.28l3.74-10.01h2.52l3.8,10.01h-2.29ZM60.91,97.57l-1.26-3.49-1.26,3.49h2.52Z"/>
        <path class="cls-4" d="M66.89,91.8h3.17c2.42,0,3.92,1.17,3.92,3.26,0,1.19-.63,2.55-2.54,3.05l3.02,3.7h-2.63l-2.66-3.52h-.09v3.52h-2.19v-10.01ZM69.96,96.61c1.18,0,1.81-.52,1.81-1.41s-.68-1.4-1.77-1.4h-.93v2.8h.89Z"/>
        <path class="cls-4" d="M76.86,91.8h6.28v1.97h-4.09v2.08h3.74v1.81h-3.74v2.19h4.09v1.96h-6.28v-10.01Z"/>
        <path class="cls-4" d="M86.06,91.8h6.28v1.97h-4.09v2.08h3.74v1.81h-3.74v2.19h4.09v1.96h-6.28v-10.01Z"/>
        <path class="cls-4" d="M1.95,115.5v-6.06h2.19v6.08c0,1.37.72,2.16,1.93,2.16s2-.79,2-2.17v-6.06h2.2v6.06c0,2.46-1.61,4.17-4.2,4.17s-4.12-1.72-4.12-4.17Z"/>
        <path class="cls-4" d="M22.02,119.45h-2.07l-4.45-6.53h-.01v6.53h-2.09v-10.01h2.12l4.41,6.43h.01v-6.43h2.08v10.01Z"/>
        <path class="cls-4" d="M25.27,109.44h2.19v10.01h-2.19v-10.01Z"/>
        <path class="cls-4" d="M35.85,119.45h-2.36l-3.88-10.01h2.29l2.76,7.67,2.72-7.67h2.27l-3.81,10.01Z"/>
        <path class="cls-4" d="M41.86,109.44h6.28v1.97h-4.09v2.08h3.74v1.81h-3.74v2.19h4.09v1.96h-6.28v-10.01Z"/>
        <path class="cls-4" d="M51.07,109.44h3.17c2.42,0,3.92,1.17,3.92,3.26,0,1.19-.63,2.55-2.54,3.05l3.02,3.7h-2.63l-2.66-3.52h-.09v3.52h-2.19v-10.01ZM54.14,114.24c1.18,0,1.81-.52,1.81-1.41s-.68-1.4-1.77-1.4h-.93v2.8h.89Z"/>
        <path class="cls-4" d="M66.82,109.91v2.01c-.66-.47-1.65-.76-2.48-.76-.89,0-1.5.35-1.5.98,0,.59.55.86,1.6,1.29,1.42.56,2.98,1.19,2.98,3.1s-1.46,3.14-3.68,3.14c-1.25,0-2.36-.4-3.03-.9v-2.12c.7.63,1.78,1.1,2.82,1.1s1.65-.46,1.65-1.14-.7-.99-1.78-1.44c-1.23-.51-2.71-1.17-2.71-2.95s1.38-2.99,3.54-2.99c1.02,0,1.93.3,2.6.68Z"/>
        <path class="cls-4" d="M70.09,109.44h2.19v10.01h-2.19v-10.01Z"/>
        <path class="cls-4" d="M77.64,111.44h-2.94v-2h8.04v2h-2.92v8.01h-2.17v-8.01Z"/>
        <path class="cls-4" d="M87.78,115.46l-3.72-6.02h2.46l2.39,4.07h.04l2.36-4.07h2.33l-3.69,6.01v4h-2.17v-3.98Z"/>
        <path class="cls-4" d="M104.38,109.21c2.92,0,5.15,2.2,5.15,5.23s-2.23,5.23-5.15,5.23-5.18-2.19-5.18-5.23,2.25-5.23,5.18-5.23ZM107.32,114.44c0-2.05-1.44-3.22-2.94-3.22s-2.97,1.17-2.97,3.22,1.44,3.23,2.97,3.23,2.94-1.18,2.94-3.23Z"/>
        <path class="cls-4" d="M112.23,109.44h6.13v2h-3.94v2.51h3.7v1.88h-3.7v3.62h-2.19v-10.01Z"/>
        <path class="cls-4" d="M4.89,129.08H1.95v-2h8.04v2h-2.92v8.01h-2.17v-8.01Z"/>
        <path class="cls-4" d="M12.42,127.08h6.28v1.97h-4.09v2.08h3.74v1.81h-3.74v2.19h4.09v1.96h-6.28v-10.01Z"/>
        <path class="cls-4" d="M26.07,137.31c-2.78,0-5.15-2.08-5.15-5.23s2.37-5.23,5.15-5.23c1.15,0,2.04.31,2.75.68v2.17c-.81-.54-1.53-.83-2.52-.83-1.7,0-3.17,1.26-3.17,3.21s1.46,3.22,3.17,3.22c.99,0,1.72-.34,2.52-.89v2.2c-.72.39-1.6.7-2.75.7Z"/>
        <path class="cls-4" d="M37.85,133.07h-4.09v4.01h-2.19v-10.01h2.19v4.01h4.09v-4.01h2.17v10.01h-2.17v-4.01Z"/>
        <path class="cls-4" d="M51.91,137.09h-2.07l-4.45-6.53h-.01v6.53h-2.09v-10.01h2.12l4.41,6.43h.01v-6.43h2.08v10.01Z"/>
        <path class="cls-4" d="M59.77,126.85c2.92,0,5.15,2.2,5.15,5.23s-2.23,5.23-5.15,5.23-5.18-2.19-5.18-5.23,2.25-5.23,5.18-5.23ZM62.71,132.08c0-2.05-1.44-3.22-2.94-3.22s-2.97,1.17-2.97,3.22,1.44,3.23,2.97,3.23,2.94-1.18,2.94-3.23Z"/>
        <path class="cls-4" d="M67.62,127.08h2.19v8.02h4.15v1.99h-6.33v-10.01Z"/>
        <path class="cls-4" d="M80.61,126.85c2.92,0,5.15,2.2,5.15,5.23s-2.23,5.23-5.15,5.23-5.18-2.19-5.18-5.23,2.25-5.23,5.18-5.23ZM83.54,132.08c0-2.05-1.44-3.22-2.94-3.22s-2.97,1.17-2.97,3.22,1.44,3.23,2.97,3.23,2.94-1.18,2.94-3.23Z"/>
        <path class="cls-4" d="M93.1,135.31c.59,0,1.02-.11,1.45-.31v-3.31h2v4.6c-.97.62-2.07,1.02-3.47,1.02-2.78,0-5.18-2.03-5.18-5.22s2.4-5.25,5.19-5.25c1.21,0,2.25.31,3.06.76v2.16c-.87-.62-1.88-.87-2.8-.87-1.92,0-3.23,1.38-3.23,3.23s1.29,3.18,2.99,3.18Z"/>
        <path class="cls-4" d="M101.71,133.1l-3.72-6.02h2.46l2.39,4.07h.04l2.36-4.07h2.33l-3.69,6.01v4h-2.17v-3.98Z"/>
      </g>
    </g>
    <text class="cls-2" transform="translate(224.91 79.27)"><tspan x="0" y="0">ASSET</tspan></text>
    <text class="cls-2" transform="translate(225.06 119.45)"><tspan x="0" y="0">MANAGEMENT</tspan></text>
    <text class="cls-1" transform="translate(226.36 38.9)"><tspan x="0" y="0">DIVISION OF</tspan></text>
    <g>
      <rect class="cls-3" x="188.06" y="80.52" width="3.61" height="56.87"/>
      <rect class="cls-4" x="188.06" y="23.65" width="3.61" height="57.09"/>
    </g>
  </g>
</svg>